#!OML:ASF E:\Mandelcareful walks\Project 1\Capture day 1\Session 1\Subject1.ASF
:FULLY-SPECIFIED
:DEGREES
634
root -1.84485 12.3916 0.204676 186.525 54.3289 165.405
lowerback 48.1165 10.8853 -11.8056
upperback 10.0092 10.2105 -0.707604
thorax -9.38754 5.75327 -0.00515766
lowerneck -34.3101 2.57039 -0.714224
upperneck 25.0226 7.67739 -9.52939
head 14.8201 1.81295 -2.12437
rclavicle -8.26944e-014 9.14409e-014
rhumerus 44.2223 4.64755 -73.068
rradius 37.7346
rwrist -29.253
rhand -18.0055 -40.9669
rfingers 7.12502
rthumb 8.26505 -70.7852
lclavicle -8.26944e-014 9.14409e-014
lhumerus -7.63001 -27.9391 68.476
lradius 66.674
lwrist 29.7846
lhand -26.8642 -17.6562
lfingers 7.12502
lthumb -0.28893 12.3234
rfemur -50.9293 -40.3549 4.47563
rtibia 105.922
rfoot -38.5654 -13.5939
rtoes -35.9184
lfemur -86.7466 17.7389 -25.0273
ltibia 86.0543
lfoot -6.87664 -26.3063
ltoes 8.15539
635
root -1.76872 12.4144 0.168171 185.945 55.3014 166.155
lowerback 49.0706 11.833 -12.3334
upperback 10.0346 10.9921 -1.06769
thorax -9.43984 6.14671 -0.605115
lowerneck -34.1013 2.69453 -0.227162
upperneck 24.7405 7.55848 -9.5991
head 14.667 1.81406 -2.25387
rclavicle -3.02153e-014 -3.4191e-014
rhumerus 44.2958 5.05093 -73.6542
rradius 38.2088
rwrist -28.9715
rhand -18.1165 -40.8246
rfingers 7.12502
rthumb 8.15787 -70.6471
lclavicle -3.02153e-014 -3.4191e-014
lhumerus -7.23882 -28.1134 67.7032
lradius 67.0558
lwrist 30.1226
lhand -26.6931 -17.5492
lfingers 7.12502
lthumb -0.123701 12.4305
rfemur -49.042 -38.4686 4.39173
rtibia 105.35
rfoot -38.7514 -14.6785
rtoes -36.7937
lfemur -85.0765 19.7989 -24.5391
ltibia 86.0255
lfoot -6.66629 -27.3384
ltoes 9.0269
636
root -1.69508 12.4384 0.164596 187.785 53.9812 166.553
lowerback 48.0049 11.7848 -12.6375
upperback 9.93917 10.9065 -0.751618
thorax -9.4916 6.06652 -0.0260883
lowerneck -34.4589 2.60835 -1.13347
upperneck 25.234 7.79133 -9.00912
head 14.8958 1.87945 -1.81814
rclavicle -1.11319e-014 1.51871e-013
rhumerus 44.392 5.87297 -73.2468
rradius 38.4865
rwrist -28.9321
rhand -17.531 -40.3377
rfingers 7.12502
rthumb 8.7229 -70.1375
lclavicle -1.11319e-014 1.51871e-013
lhumerus -7.01043 -27.9494 67.9392
lradius 67.2618
lwrist 30.1802
lhand -26.2747 -17.5843
lfingers 7.12502
lthumb 0.280388 12.3953
rfemur -50.2286 -39.6388 5.83682
rtibia 105.2
rfoot -38.684 -15.545
rtoes -37.5974
lfemur -86.6195 18.8899 -24.9526
ltibia 85.7767
lfoot -6.02655 -27.7044
ltoes 9.47161
637
root -1.6181 12.4569 0.140785 188.014 53.933 166.87
lowerback 48.0498 12.4009 -13.2759
upperback 9.90118 11.3456 -0.680525
thorax -9.58961 6.26125 0.0966709
lowerneck -34.4066 2.57059 -1.19023
upperneck 25.1647 7.77474 -9.04216
head 14.8547 1.86869 -1.82428
rclavicle -1.59028e-015 -3.97569e-015
rhumerus 44.5153 6.68335 -72.6647
rradius 38.6924
rwrist -29.257
rhand -16.6148 -39.6704
rfingers 7.12502
rthumb 9.60702 -69.4313
lclavicle -1.59028e-015 -3.97569e-015
lhumerus -6.76758 -27.9502 67.997
lradius 67.4071
lwrist 30.0692
lhand -26.7029 -17.2625
lfingers 7.12502
lthumb -0.133177 12.7172
rfemur -49.589 -39.1669 6.07901
rtibia 104.841
rfoot -38.5906 -16.3117
rtoes -38.333
lfemur -86.3572 19.5569 -24.967
ltibia 85.7586
lfoot -5.95153 -28.3339
ltoes 10.2344
638
root -1.5475 12.4793 0.127103 188.21 53.4912 167.054
lowerback 48.179 12.7241 -13.629
upperback 9.87639 11.5671 -0.720309
thorax -9.6415 6.37182 0.0785884
lowerneck -34.4211 2.51874 -1.19584
upperneck 25.0757 7.67731 -9.00324
head 14.8091 1.83627 -1.82734
rclavicle -2.70347e-014 -1.51076e-014
rhumerus 44.8724 7.56066 -71.442
rradius 39.0296
rwrist -30.2121
rhand -17.2472 -39.1903
rfingers 7.12502
rthumb 8.99685 -68.9785
lclavicle -2.70347e-014 -1.51076e-014
lhumerus -6.25097 -27.9931 67.7968
lradius 67.3231
lwrist 29.8985
lhand -26.8454 -17.253
lfingers 7.12502
lthumb -0.270738 12.7266
rfemur -48.8672 -39.233 6.13353
rtibia 104.553
rfoot -38.5917 -16.4436
rtoes -38.4262
lfemur -86.1135 19.6767 -24.9243
ltibia 85.6752
lfoot -5.64618 -28.8844
ltoes 11.9011
639
root -1.48391 12.4967 0.11566 188.799 52.6711 167.278
lowerback 47.9649 12.7335 -13.7817
upperback 9.91218 11.5697 -0.743024
thorax -9.5719 6.3812 0.139165
lowerneck -34.4682 2.57764 -0.965152
upperneck 24.942 7.71517 -9.24659
head 14.7868 1.84466 -1.95494
rclavicle -5.40694e-014 8.50798e-014
rhumerus 45.1036 8.3319 -71.2042
rradius 39.3361
rwrist -30.1269
rhand -16.4615 -39.4493
rfingers 7.12502
rthumb 9.75496 -69.2034
lclavicle -5.40694e-014 8.50798e-014
lhumerus -5.78294 -28.0158 67.4546
lradius 67.408
lwrist 29.9493
lhand -26.3344 -17.5141
lfingers 7.12502
lthumb 0.222765 12.4655
rfemur -48.5759 -39.7848 6.41782
rtibia 104.355
rfoot -38.5513 -16.3125
rtoes -38.2712
lfemur -86.316 19.282 -24.851
ltibia 85.6152
lfoot -5.01723 -29.3564
ltoes 13.671
640
root -1.42368 12.5136 0.103339 189.451 51.8716 167.545
lowerback 47.7483 12.7111 -13.9299
upperback 9.88352 11.5158 -0.741582
thorax -9.5779 6.35981 0.242363
lowerneck -34.4188 2.71749 -0.811208
upperneck 24.8788 7.89393 -9.4322
head 14.7792 1.91327 -2.01522
rclavicle 2.06736e-014 8.74653e-015
rhumerus 45.4092 9.27085 -70.5679
rradius 39.6346
rwrist -30.4672
rhand -16.6405 -39.0914
rfingers 7.12502
rthumb 9.58222 -68.8535
lclavicle 2.06736e-014 8.74653e-015
lhumerus -5.84883 -28.1755 67.2631
lradius 68.025
lwrist 30.4955
lhand -25.9841 -17.7237
lfingers 7.12502
lthumb 0.561073 12.2553
rfemur -48.4284 -40.2343 6.8398
rtibia 104.174
rfoot -38.4572 -16.4549
rtoes -38.4009
lfemur -86.6063 18.9516 -24.8338
ltibia 85.5161
lfoot -4.42171 -29.7624
ltoes 14.6387
